<svg width="27" height="27" viewBox="0 0 27 27" fill="none" xmlns="http://www.w3.org/2000/svg">
<path d="M8.52517 5.93593C7.58206 4.99282 6.05297 4.99282 5.10985 5.93593C4.16674 6.87905 4.16674 8.40814 5.10985 9.35125L9.74498 13.9864L5.10985 18.6215C4.16673 19.5646 4.16672 21.0937 5.10983 22.0368C6.05295 22.98 7.58208 22.98 8.52521 22.0369L13.1603 17.4017L17.7954 22.0368C18.7386 22.98 20.2676 22.98 21.2108 22.0369C22.1539 21.0937 22.1539 19.5646 21.2108 18.6215L16.5756 13.9864L21.2108 9.35125C22.1539 8.40814 22.1539 6.87905 21.2108 5.93593C20.2676 4.99282 18.7385 4.99282 17.7954 5.93593L13.1603 10.5711L8.52517 5.93593Z" fill="white"/>
</svg>
