<svg width="350" height="204" viewBox="0 0 350 204" fill="none" xmlns="http://www.w3.org/2000/svg">
<g filter="url(#filter0_d_1775_338)">
<g filter="url(#filter1_di_1775_338)">
<path d="M47.9246 56C47.4846 56 47.1045 55.84 46.7845 55.52C46.4645 55.2 46.3045 54.8199 46.3045 54.3799V15.6182C46.3045 15.1782 46.4645 14.7981 46.7845 14.4781C47.1045 14.1581 47.4846 13.9981 47.9246 13.9981H57.405C58.205 13.9981 58.8051 14.2181 59.2051 14.6581C59.6051 15.0982 59.8651 15.4182 59.9851 15.6182L68.6855 30.0188L77.3859 15.6182C77.5059 15.4182 77.7659 15.0982 78.1659 14.6581C78.566 14.2181 79.166 13.9981 79.966 13.9981H89.4465C89.8865 13.9981 90.2665 14.1581 90.5865 14.4781C90.9065 14.7981 91.0665 15.1782 91.0665 15.6182V54.3799C91.0665 54.8199 90.9065 55.2 90.5865 55.52C90.2665 55.84 89.8865 56 89.4465 56H78.586C78.1459 56 77.7659 55.84 77.4459 55.52C77.1259 55.2 76.9659 54.8199 76.9659 54.3799V37.9392L73.0057 44.4195C72.8057 44.7395 72.5257 45.0795 72.1657 45.4395C71.8457 45.7595 71.3856 45.9195 70.7856 45.9195H66.5854C65.9854 45.9195 65.5054 45.7595 65.1454 45.4395C64.8253 45.0795 64.5653 44.7395 64.3653 44.4195L60.4051 37.9392V54.3799C60.4051 54.8199 60.2451 55.2 59.9251 55.52C59.6051 55.84 59.2251 56 58.7851 56H47.9246ZM95.7135 56C95.3534 56 95.0334 55.88 94.7534 55.64C94.5134 55.36 94.3934 55.04 94.3934 54.6799C94.3934 54.5199 94.4134 54.3799 94.4534 54.2599L107.834 15.9782C107.954 15.5382 108.234 15.0982 108.674 14.6581C109.114 14.2181 109.734 13.9981 110.534 13.9981H123.555C124.355 13.9981 124.975 14.2181 125.415 14.6581C125.855 15.0982 126.135 15.5382 126.255 15.9782L139.635 54.2599C139.675 54.3799 139.695 54.5199 139.695 54.6799C139.695 55.04 139.555 55.36 139.275 55.64C139.035 55.88 138.735 56 138.375 56H127.275C126.515 56 125.955 55.84 125.595 55.52C125.275 55.16 125.055 54.8199 124.935 54.4999L123.495 50.5398H110.594L109.154 54.4999C109.034 54.8199 108.814 55.16 108.494 55.52C108.174 55.84 107.614 56 106.814 56H95.7135ZM113.654 38.8392H120.435L117.014 27.6787L113.654 38.8392ZM144.609 56C144.169 56 143.789 55.84 143.469 55.52C143.149 55.2 142.989 54.8199 142.989 54.3799V15.6182C142.989 15.1782 143.149 14.7981 143.469 14.4781C143.789 14.1581 144.169 13.9981 144.609 13.9981H162.369C168.13 13.9981 172.63 15.2982 175.87 17.8983C179.11 20.4984 180.73 24.0586 180.73 28.5788C180.73 31.2589 180.11 33.599 178.87 35.5991C177.67 37.5592 176.13 39.1392 174.25 40.3393L181.63 54.0199C181.75 54.2599 181.81 54.4799 181.81 54.6799C181.81 55.04 181.67 55.36 181.39 55.64C181.15 55.88 180.85 56 180.49 56H168.19C167.39 56 166.79 55.8 166.39 55.4C165.99 55 165.73 54.6599 165.61 54.3799L160.449 42.9194H157.989V54.3799C157.989 54.8199 157.829 55.2 157.509 55.52C157.189 55.84 156.809 56 156.369 56H144.609ZM157.989 31.5189H162.369C163.289 31.5189 163.969 31.2189 164.41 30.6189C164.89 29.9788 165.13 29.2588 165.13 28.4588C165.13 27.6587 164.91 26.9187 164.47 26.2387C164.069 25.5186 163.369 25.1586 162.369 25.1586H157.989V31.5189ZM187.911 56C187.471 56 187.091 55.84 186.771 55.52C186.451 55.2 186.291 54.8199 186.291 54.3799V15.6182C186.291 15.1782 186.451 14.7981 186.771 14.4781C187.091 14.1581 187.471 13.9981 187.911 13.9981H207.832C211.672 13.9981 214.813 14.4781 217.253 15.4382C219.693 16.3582 221.493 17.7583 222.653 19.6384C223.853 21.4784 224.453 23.7986 224.453 26.5987C224.453 27.8787 224.173 29.0388 223.613 30.0788C223.093 31.0789 222.453 31.9189 221.693 32.5989C220.973 33.279 220.293 33.779 219.653 34.099C221.173 34.739 222.493 35.8591 223.613 37.4592C224.773 39.0192 225.353 40.7993 225.353 42.7994C225.353 45.7995 224.693 48.2797 223.373 50.2397C222.053 52.1598 220.133 53.5999 217.613 54.5599C215.133 55.52 212.072 56 208.432 56H187.911ZM201.292 45.6795H206.872C207.872 45.6795 208.572 45.3595 208.972 44.7195C209.412 44.0395 209.632 43.3794 209.632 42.7394C209.632 42.0194 209.392 41.3593 208.912 40.7593C208.472 40.1193 207.792 39.7993 206.872 39.7993H201.292V45.6795ZM201.292 29.7788H206.332C207.212 29.7788 207.832 29.4988 208.192 28.9388C208.592 28.3388 208.792 27.7187 208.792 27.0787C208.792 26.4387 208.592 25.8186 208.192 25.2186C207.832 24.6186 207.212 24.3186 206.332 24.3186H201.292V29.7788ZM231.976 56C231.536 56 231.156 55.84 230.836 55.52C230.516 55.2 230.356 54.8199 230.356 54.3799V15.6182C230.356 15.1782 230.516 14.7981 230.836 14.4781C231.156 14.1581 231.536 13.9981 231.976 13.9981H243.976C244.416 13.9981 244.796 14.1581 245.116 14.4781C245.436 14.7981 245.596 15.1782 245.596 15.6182V43.6994H262.217C262.657 43.6994 263.037 43.8595 263.357 44.1795C263.677 44.4995 263.837 44.8795 263.837 45.3195V54.3799C263.837 54.8199 263.677 55.2 263.357 55.52C263.037 55.84 262.657 56 262.217 56H231.976ZM269.536 56C269.096 56 268.716 55.84 268.396 55.52C268.076 55.2 267.916 54.8199 267.916 54.3799V15.6182C267.916 15.1782 268.076 14.7981 268.396 14.4781C268.716 14.1581 269.096 13.9981 269.536 13.9981H300.318C300.758 13.9981 301.138 14.1581 301.458 14.4781C301.778 14.7981 301.938 15.1782 301.938 15.6182V24.0786C301.938 24.5186 301.778 24.8986 301.458 25.2186C301.138 25.5386 300.758 25.6986 300.318 25.6986H282.317V29.4788H298.997C299.437 29.4788 299.817 29.6388 300.138 29.9588C300.458 30.2788 300.618 30.6589 300.618 31.0989V38.8992C300.618 39.3392 300.458 39.7193 300.138 40.0393C299.817 40.3593 299.437 40.5193 298.997 40.5193H282.317V44.2995H300.798C301.238 44.2995 301.618 44.4595 301.938 44.7795C302.258 45.0995 302.418 45.4795 302.418 45.9195V54.3799C302.418 54.8199 302.258 55.2 301.938 55.52C301.618 55.84 301.238 56 300.798 56H269.536Z" fill="url(#paint0_linear_1775_338)"/>
</g>
<g filter="url(#filter2_i_1775_338)">
<path d="M6.30622 130.501C5.71955 130.501 5.21288 130.288 4.78622 129.861C4.35955 129.434 4.14622 128.928 4.14622 128.341V76.6611C4.14622 76.0744 4.35955 75.5677 4.78622 75.1411C5.21288 74.7144 5.71955 74.5011 6.30622 74.5011H18.9462C20.0129 74.5011 20.8129 74.7944 21.3462 75.3811C21.8795 75.9677 22.2262 76.3944 22.3862 76.6611L33.9862 95.8611L45.5862 76.6611C45.7462 76.3944 46.0929 75.9677 46.6262 75.3811C47.1596 74.7944 47.9596 74.5011 49.0262 74.5011H61.6662C62.2529 74.5011 62.7596 74.7144 63.1862 75.1411C63.6129 75.5677 63.8262 76.0744 63.8262 76.6611V128.341C63.8262 128.928 63.6129 129.434 63.1862 129.861C62.7596 130.288 62.2529 130.501 61.6662 130.501H47.1862C46.5996 130.501 46.0929 130.288 45.6662 129.861C45.2396 129.434 45.0262 128.928 45.0262 128.341V106.421L39.7462 115.061C39.4796 115.488 39.1062 115.941 38.6262 116.421C38.1996 116.848 37.5862 117.061 36.7862 117.061H31.1862C30.3862 117.061 29.7462 116.848 29.2662 116.421C28.8396 115.941 28.4929 115.488 28.2262 115.061L22.9462 106.421V128.341C22.9462 128.928 22.7329 129.434 22.3062 129.861C21.8796 130.288 21.3729 130.501 20.7862 130.501H6.30622ZM70.0218 130.501C69.5418 130.501 69.1152 130.341 68.7418 130.021C68.4218 129.648 68.2618 129.221 68.2618 128.741C68.2618 128.528 68.2885 128.341 68.3418 128.181L86.1818 77.1411C86.3418 76.5544 86.7152 75.9677 87.3018 75.3811C87.8885 74.7944 88.7152 74.5011 89.7818 74.5011H107.142C108.209 74.5011 109.035 74.7944 109.622 75.3811C110.209 75.9677 110.582 76.5544 110.742 77.1411L128.582 128.181C128.635 128.341 128.662 128.528 128.662 128.741C128.662 129.221 128.475 129.648 128.102 130.021C127.782 130.341 127.382 130.501 126.902 130.501H112.102C111.089 130.501 110.342 130.288 109.862 129.861C109.435 129.381 109.142 128.928 108.982 128.501L107.062 123.221H89.8618L87.9418 128.501C87.7818 128.928 87.4885 129.381 87.0618 129.861C86.6352 130.288 85.8885 130.501 84.8218 130.501H70.0218ZM93.9418 107.621H102.982L98.4218 92.7411L93.9418 107.621ZM155.553 131.301C149.633 131.301 144.753 130.501 140.913 128.901C137.073 127.301 134.193 125.194 132.273 122.581C130.353 119.968 129.34 117.194 129.233 114.261C129.233 113.781 129.393 113.381 129.713 113.061C130.086 112.688 130.513 112.501 130.993 112.501H146.193C147.046 112.501 147.686 112.634 148.113 112.901C148.593 113.114 149.1 113.434 149.633 113.861C150.166 114.234 150.7 114.581 151.233 114.901C151.82 115.168 152.46 115.381 153.153 115.541C153.9 115.648 154.7 115.701 155.553 115.701C157.366 115.701 158.806 115.514 159.873 115.141C160.993 114.714 161.553 114.154 161.553 113.461C161.553 112.821 161.233 112.288 160.593 111.861C160.006 111.434 158.966 111.061 157.473 110.741C155.98 110.368 153.9 110.021 151.233 109.701C147.02 109.114 143.366 108.128 140.273 106.741C137.18 105.354 134.78 103.461 133.073 101.061C131.42 98.6077 130.593 95.6211 130.593 92.1011C130.593 88.4744 131.606 85.2744 133.633 82.5011C135.713 79.7277 138.566 77.5677 142.193 76.0211C145.873 74.4744 150.14 73.7011 154.993 73.7011C158.993 73.7011 162.54 74.2344 165.633 75.3011C168.726 76.3144 171.34 77.6744 173.473 79.3811C175.606 81.0344 177.233 82.8211 178.353 84.7411C179.473 86.6611 180.06 88.5011 180.113 90.2611C180.113 90.7411 179.926 91.1677 179.553 91.5411C179.233 91.8611 178.86 92.0211 178.433 92.0211H162.433C161.686 92.0211 161.073 91.9144 160.593 91.7011C160.166 91.4877 159.713 91.1677 159.233 90.7411C158.966 90.4744 158.46 90.1811 157.713 89.8611C157.02 89.4877 156.113 89.3011 154.993 89.3011C153.66 89.3011 152.673 89.5144 152.033 89.9411C151.446 90.3144 151.153 90.8477 151.153 91.5411C151.153 92.0211 151.393 92.4744 151.873 92.9011C152.353 93.3277 153.233 93.7011 154.513 94.0211C155.793 94.3411 157.633 94.6611 160.033 94.9811C165.366 95.6211 169.633 96.6611 172.833 98.1011C176.086 99.4877 178.433 101.354 179.873 103.701C181.366 106.048 182.113 108.954 182.113 112.421C182.113 116.314 180.94 119.674 178.593 122.501C176.3 125.328 173.153 127.514 169.153 129.061C165.153 130.554 160.62 131.301 155.553 131.301ZM201.987 130.501C201.401 130.501 200.894 130.288 200.467 129.861C200.041 129.434 199.827 128.928 199.827 128.341V91.7011H186.547C185.961 91.7011 185.454 91.4877 185.027 91.0611C184.601 90.6344 184.387 90.1277 184.387 89.5411V76.6611C184.387 76.0744 184.601 75.5677 185.027 75.1411C185.454 74.7144 185.961 74.5011 186.547 74.5011H233.427C234.014 74.5011 234.521 74.7144 234.947 75.1411C235.374 75.5677 235.587 76.0744 235.587 76.6611V89.5411C235.587 90.1277 235.374 90.6344 234.947 91.0611C234.521 91.4877 234.014 91.7011 233.427 91.7011H220.147V128.341C220.147 128.928 219.934 129.434 219.507 129.861C219.081 130.288 218.574 130.501 217.987 130.501H201.987ZM243.494 130.501C242.907 130.501 242.4 130.288 241.974 129.861C241.547 129.434 241.334 128.928 241.334 128.341V76.6611C241.334 76.0744 241.547 75.5677 241.974 75.1411C242.4 74.7144 242.907 74.5011 243.494 74.5011H284.534C285.12 74.5011 285.627 74.7144 286.054 75.1411C286.48 75.5677 286.694 76.0744 286.694 76.6611V87.9411C286.694 88.5277 286.48 89.0344 286.054 89.4611C285.627 89.8877 285.12 90.1011 284.534 90.1011H260.534V95.1411H282.774C283.36 95.1411 283.867 95.3544 284.294 95.7811C284.72 96.2077 284.934 96.7144 284.934 97.3011V107.701C284.934 108.288 284.72 108.794 284.294 109.221C283.867 109.648 283.36 109.861 282.774 109.861H260.534V114.901H285.174C285.76 114.901 286.267 115.114 286.694 115.541C287.12 115.968 287.334 116.474 287.334 117.061V128.341C287.334 128.928 287.12 129.434 286.694 129.861C286.267 130.288 285.76 130.501 285.174 130.501H243.494ZM296.853 130.501C296.266 130.501 295.76 130.288 295.333 129.861C294.906 129.434 294.693 128.928 294.693 128.341V76.6611C294.693 76.0744 294.906 75.5677 295.333 75.1411C295.76 74.7144 296.266 74.5011 296.853 74.5011H320.533C328.213 74.5011 334.213 76.2344 338.533 79.7011C342.853 83.1677 345.013 87.9144 345.013 93.9411C345.013 97.5144 344.186 100.634 342.533 103.301C340.933 105.914 338.88 108.021 336.373 109.621L346.213 127.861C346.373 128.181 346.453 128.474 346.453 128.741C346.453 129.221 346.266 129.648 345.893 130.021C345.573 130.341 345.173 130.501 344.693 130.501H328.293C327.226 130.501 326.426 130.234 325.893 129.701C325.36 129.168 325.013 128.714 324.853 128.341L317.973 113.061H314.693V128.341C314.693 128.928 314.48 129.434 314.053 129.861C313.626 130.288 313.12 130.501 312.533 130.501H296.853ZM314.693 97.8611H320.533C321.76 97.8611 322.666 97.4611 323.253 96.6611C323.893 95.8077 324.213 94.8477 324.213 93.7811C324.213 92.7144 323.92 91.7277 323.333 90.8211C322.8 89.8611 321.866 89.3811 320.533 89.3811H314.693V97.8611Z" fill="url(#paint1_linear_1775_338)"/>
</g>
<path d="M11 146.415H335.858L321.96 170.208L335.858 194H11L24.8983 170.208L11 146.415Z" fill="url(#paint2_linear_1775_338)"/>
<g filter="url(#filter3_d_1775_338)">
<path d="M30.9553 179.821C30.7412 179.821 30.566 179.753 30.4298 179.616C30.2936 179.461 30.2255 179.286 30.2255 179.091V176.23C30.2255 175.958 30.2741 175.734 30.3714 175.559C30.4882 175.384 30.5855 175.257 30.6633 175.179L40.063 163.736H31.218C31.0234 163.736 30.8482 163.668 30.6925 163.532C30.5563 163.396 30.4882 163.221 30.4882 163.006V160.116C30.4882 159.902 30.5563 159.727 30.6925 159.591C30.8482 159.455 31.0234 159.387 31.218 159.387H45.9305C46.1446 159.387 46.3197 159.455 46.456 159.591C46.6116 159.727 46.6895 159.902 46.6895 160.116V162.948C46.6895 163.162 46.6506 163.347 46.5727 163.503C46.5143 163.658 46.4268 163.804 46.31 163.941L37.1731 175.413H46.2808C46.4949 175.413 46.67 175.491 46.8063 175.646C46.9619 175.783 47.0398 175.958 47.0398 176.172V179.091C47.0398 179.305 46.9619 179.48 46.8063 179.616C46.67 179.753 46.4949 179.821 46.2808 179.821H30.9553ZM58.6986 180.113C56.9471 180.113 55.4097 179.83 54.0863 179.266C52.7825 178.682 51.7705 177.797 51.0504 176.61C50.3304 175.403 49.9703 173.875 49.9703 172.027V160.116C49.9703 159.902 50.0384 159.727 50.1747 159.591C50.3109 159.455 50.4861 159.387 50.7001 159.387H54.4658C54.6799 159.387 54.855 159.455 54.9913 159.591C55.1275 159.727 55.1956 159.902 55.1956 160.116V171.997C55.1956 173.262 55.4973 174.216 56.1006 174.858C56.7233 175.481 57.5893 175.792 58.6986 175.792C59.7884 175.792 60.635 175.481 61.2383 174.858C61.861 174.216 62.1724 173.262 62.1724 171.997V160.116C62.1724 159.902 62.2405 159.727 62.3767 159.591C62.5324 159.455 62.7076 159.387 62.9022 159.387H66.6971C66.8917 159.387 67.0571 159.455 67.1933 159.591C67.349 159.727 67.4269 159.902 67.4269 160.116V172.027C67.4269 173.875 67.0668 175.403 66.3468 176.61C65.6267 177.797 64.6147 178.682 63.3109 179.266C62.007 179.83 60.4695 180.113 58.6986 180.113ZM72.0277 179.821C71.8331 179.821 71.658 179.753 71.5023 179.616C71.366 179.48 71.2979 179.305 71.2979 179.091V160.116C71.2979 159.902 71.366 159.727 71.5023 159.591C71.658 159.455 71.8331 159.387 72.0277 159.387H75.1804C75.4918 159.387 75.7253 159.474 75.881 159.649C76.0561 159.805 76.1632 159.932 76.2021 160.029L81.3398 169.253L86.4775 160.029C86.5359 159.932 86.6332 159.805 86.7694 159.649C86.9251 159.474 87.1684 159.387 87.4992 159.387H90.6227C90.8368 159.387 91.0119 159.455 91.1482 159.591C91.3038 159.727 91.3817 159.902 91.3817 160.116V179.091C91.3817 179.305 91.3038 179.48 91.1482 179.616C91.0119 179.753 90.8368 179.821 90.6227 179.821H87.1489C86.9348 179.821 86.75 179.753 86.5943 179.616C86.4581 179.48 86.3899 179.305 86.3899 179.091V168.144L83.0913 174.245C83.0135 174.42 82.8967 174.576 82.741 174.712C82.5853 174.848 82.3712 174.917 82.0988 174.917H80.5808C80.3084 174.917 80.0943 174.848 79.9386 174.712C79.7829 174.576 79.6564 174.42 79.5591 174.245L76.2605 168.144V179.091C76.2605 179.305 76.1924 179.48 76.0561 179.616C75.9199 179.753 75.7448 179.821 75.5307 179.821H72.0277ZM96.1734 179.821C95.9594 179.821 95.7842 179.753 95.648 179.616C95.5117 179.48 95.4436 179.305 95.4436 179.091V160.116C95.4436 159.902 95.5117 159.727 95.648 159.591C95.7842 159.455 95.9594 159.387 96.1734 159.387H105.077C106.75 159.387 108.122 159.62 109.193 160.087C110.263 160.554 111.051 161.226 111.557 162.101C112.083 162.958 112.346 163.979 112.346 165.167C112.346 165.867 112.209 166.49 111.937 167.035C111.684 167.56 111.363 167.998 110.974 168.348C110.604 168.699 110.253 168.952 109.923 169.107C110.662 169.458 111.314 170.032 111.878 170.83C112.462 171.628 112.754 172.562 112.754 173.632C112.754 174.917 112.462 176.026 111.878 176.96C111.314 177.875 110.477 178.585 109.368 179.091C108.278 179.577 106.935 179.821 105.34 179.821H96.1734ZM100.669 176.026H104.756C105.593 176.026 106.225 175.783 106.653 175.296C107.081 174.81 107.295 174.255 107.295 173.632C107.295 172.951 107.072 172.377 106.624 171.91C106.196 171.443 105.573 171.209 104.756 171.209H100.669V176.026ZM100.669 167.502H104.493C105.291 167.502 105.884 167.298 106.274 166.889C106.682 166.48 106.887 165.955 106.887 165.313C106.887 164.69 106.682 164.184 106.274 163.795C105.884 163.386 105.291 163.182 104.493 163.182H100.669V167.502ZM114.545 179.821C114.389 179.821 114.243 179.762 114.107 179.646C113.99 179.509 113.932 179.363 113.932 179.208C113.932 179.11 113.941 179.023 113.961 178.945L120.821 160.204C120.879 159.99 120.996 159.805 121.171 159.649C121.366 159.474 121.628 159.387 121.959 159.387H126.28C126.611 159.387 126.864 159.474 127.039 159.649C127.233 159.805 127.36 159.99 127.418 160.204L134.249 178.945C134.288 179.023 134.307 179.11 134.307 179.208C134.307 179.363 134.239 179.509 134.103 179.646C133.986 179.762 133.84 179.821 133.665 179.821H130.075C129.783 179.821 129.559 179.753 129.403 179.616C129.267 179.461 129.179 179.324 129.14 179.208L128.002 176.23H120.208L119.099 179.208C119.06 179.324 118.972 179.461 118.836 179.616C118.7 179.753 118.466 179.821 118.135 179.821H114.545ZM121.405 172.027H126.834L124.09 164.32L121.405 172.027ZM142.811 179.821C142.597 179.821 142.422 179.753 142.286 179.616C142.15 179.48 142.082 179.305 142.082 179.091V160.116C142.082 159.902 142.15 159.727 142.286 159.591C142.422 159.455 142.597 159.387 142.811 159.387H151.715C153.388 159.387 154.76 159.62 155.831 160.087C156.901 160.554 157.689 161.226 158.195 162.101C158.721 162.958 158.984 163.979 158.984 165.167C158.984 165.867 158.847 166.49 158.575 167.035C158.322 167.56 158.001 167.998 157.612 168.348C157.242 168.699 156.891 168.952 156.561 169.107C157.3 169.458 157.952 170.032 158.516 170.83C159.1 171.628 159.392 172.562 159.392 173.632C159.392 174.917 159.1 176.026 158.516 176.96C157.952 177.875 157.115 178.585 156.006 179.091C154.916 179.577 153.573 179.821 151.978 179.821H142.811ZM147.307 176.026H151.394C152.231 176.026 152.863 175.783 153.291 175.296C153.719 174.81 153.933 174.255 153.933 173.632C153.933 172.951 153.71 172.377 153.262 171.91C152.834 171.443 152.211 171.209 151.394 171.209H147.307V176.026ZM147.307 167.502H151.131C151.929 167.502 152.522 167.298 152.912 166.889C153.32 166.48 153.525 165.955 153.525 165.313C153.525 164.69 153.32 164.184 152.912 163.795C152.522 163.386 151.929 163.182 151.131 163.182H147.307V167.502ZM161.183 179.821C161.027 179.821 160.881 179.762 160.745 179.646C160.628 179.509 160.57 179.363 160.57 179.208C160.57 179.11 160.579 179.023 160.599 178.945L167.459 160.204C167.517 159.99 167.634 159.805 167.809 159.649C168.004 159.474 168.266 159.387 168.597 159.387H172.918C173.249 159.387 173.502 159.474 173.677 159.649C173.871 159.805 173.998 159.99 174.056 160.204L180.887 178.945C180.926 179.023 180.945 179.11 180.945 179.208C180.945 179.363 180.877 179.509 180.741 179.646C180.624 179.762 180.478 179.821 180.303 179.821H176.713C176.421 179.821 176.197 179.753 176.041 179.616C175.905 179.461 175.817 179.324 175.778 179.208L174.64 176.23H166.846L165.737 179.208C165.698 179.324 165.61 179.461 165.474 179.616C165.338 179.753 165.104 179.821 164.773 179.821H161.183ZM168.043 172.027H173.472L170.728 164.32L168.043 172.027ZM183.976 179.821C183.762 179.821 183.587 179.753 183.451 179.616C183.314 179.48 183.246 179.305 183.246 179.091V160.116C183.246 159.902 183.314 159.727 183.451 159.591C183.587 159.455 183.762 159.387 183.976 159.387H187.829C188.024 159.387 188.189 159.455 188.326 159.591C188.481 159.727 188.559 159.902 188.559 160.116V175.413H197.375C197.589 175.413 197.764 175.491 197.9 175.646C198.056 175.783 198.134 175.958 198.134 176.172V179.091C198.134 179.305 198.056 179.48 197.9 179.616C197.764 179.753 197.589 179.821 197.375 179.821H183.976ZM201.394 179.821C201.18 179.821 201.005 179.753 200.869 179.616C200.732 179.48 200.664 179.305 200.664 179.091V160.116C200.664 159.902 200.732 159.727 200.869 159.591C201.005 159.455 201.18 159.387 201.394 159.387H205.247C205.442 159.387 205.607 159.455 205.744 159.591C205.899 159.727 205.977 159.902 205.977 160.116V175.413H214.793C215.007 175.413 215.182 175.491 215.318 175.646C215.474 175.783 215.552 175.958 215.552 176.172V179.091C215.552 179.305 215.474 179.48 215.318 179.616C215.182 179.753 215.007 179.821 214.793 179.821H201.394ZM232.049 180.113C230.2 180.113 228.604 179.811 227.262 179.208C225.938 178.585 224.907 177.69 224.167 176.522C223.447 175.335 223.048 173.895 222.97 172.202C222.951 171.365 222.941 170.479 222.941 169.545C222.941 168.592 222.951 167.687 222.97 166.831C223.048 165.176 223.457 163.775 224.196 162.627C224.936 161.479 225.977 160.603 227.32 160C228.663 159.396 230.239 159.095 232.049 159.095C233.509 159.095 234.803 159.28 235.931 159.649C237.06 160 238.004 160.476 238.763 161.08C239.541 161.683 240.125 162.345 240.514 163.065C240.923 163.785 241.137 164.495 241.157 165.196C241.176 165.371 241.118 165.517 240.982 165.634C240.865 165.75 240.719 165.809 240.544 165.809H236.282C236.068 165.809 235.902 165.78 235.785 165.721C235.688 165.643 235.601 165.536 235.523 165.4C235.387 165.108 235.182 164.807 234.91 164.495C234.657 164.164 234.297 163.882 233.83 163.649C233.382 163.415 232.788 163.298 232.049 163.298C230.94 163.298 230.064 163.59 229.422 164.174C228.799 164.758 228.458 165.692 228.4 166.976C228.342 168.65 228.342 170.343 228.4 172.056C228.458 173.418 228.818 174.401 229.48 175.004C230.142 175.607 231.018 175.909 232.107 175.909C232.847 175.909 233.499 175.783 234.063 175.53C234.647 175.277 235.104 174.887 235.435 174.362C235.766 173.817 235.931 173.126 235.931 172.289V171.735H233.187C232.973 171.735 232.788 171.667 232.633 171.53C232.497 171.375 232.428 171.19 232.428 170.976V168.816C232.428 168.601 232.497 168.426 232.633 168.29C232.788 168.134 232.973 168.057 233.187 168.057H240.544C240.758 168.057 240.933 168.134 241.069 168.29C241.205 168.426 241.273 168.601 241.273 168.816V172.143C241.273 173.817 240.894 175.247 240.135 176.435C239.376 177.622 238.296 178.536 236.895 179.179C235.513 179.801 233.898 180.113 232.049 180.113ZM242.999 179.821C242.843 179.821 242.697 179.762 242.561 179.646C242.444 179.509 242.386 179.363 242.386 179.208C242.386 179.11 242.395 179.023 242.415 178.945L249.275 160.204C249.333 159.99 249.45 159.805 249.625 159.649C249.82 159.474 250.083 159.387 250.413 159.387H254.734C255.065 159.387 255.318 159.474 255.493 159.649C255.687 159.805 255.814 159.99 255.872 160.204L262.703 178.945C262.742 179.023 262.761 179.11 262.761 179.208C262.761 179.363 262.693 179.509 262.557 179.646C262.44 179.762 262.294 179.821 262.119 179.821H258.529C258.237 179.821 258.013 179.753 257.857 179.616C257.721 179.461 257.633 179.324 257.594 179.208L256.456 176.23H248.662L247.553 179.208C247.514 179.324 247.426 179.461 247.29 179.616C247.154 179.753 246.92 179.821 246.589 179.821H242.999ZM249.859 172.027H255.288L252.544 164.32L249.859 172.027ZM265.792 179.821C265.597 179.821 265.422 179.753 265.267 179.616C265.13 179.48 265.062 179.305 265.062 179.091V160.116C265.062 159.902 265.13 159.727 265.267 159.591C265.422 159.455 265.597 159.387 265.792 159.387H268.945C269.256 159.387 269.49 159.474 269.645 159.649C269.82 159.805 269.928 159.932 269.966 160.029L275.104 169.253L280.242 160.029C280.3 159.932 280.398 159.805 280.534 159.649C280.689 159.474 280.933 159.387 281.264 159.387H284.387C284.601 159.387 284.776 159.455 284.912 159.591C285.068 159.727 285.146 159.902 285.146 160.116V179.091C285.146 179.305 285.068 179.48 284.912 179.616C284.776 179.753 284.601 179.821 284.387 179.821H280.913C280.699 179.821 280.514 179.753 280.359 179.616C280.222 179.48 280.154 179.305 280.154 179.091V168.144L276.856 174.245C276.778 174.42 276.661 174.576 276.505 174.712C276.35 174.848 276.136 174.917 275.863 174.917H274.345C274.073 174.917 273.859 174.848 273.703 174.712C273.547 174.576 273.421 174.42 273.323 174.245L270.025 168.144V179.091C270.025 179.305 269.957 179.48 269.82 179.616C269.684 179.753 269.509 179.821 269.295 179.821H265.792ZM289.938 179.821C289.724 179.821 289.549 179.753 289.412 179.616C289.276 179.48 289.208 179.305 289.208 179.091V160.116C289.208 159.902 289.276 159.727 289.412 159.591C289.549 159.455 289.724 159.387 289.938 159.387H303.57C303.784 159.387 303.959 159.455 304.096 159.591C304.232 159.727 304.3 159.902 304.3 160.116V162.86C304.3 163.075 304.232 163.25 304.096 163.386C303.959 163.522 303.784 163.59 303.57 163.59H294.258V167.531H302.928C303.142 167.531 303.317 167.609 303.453 167.765C303.59 167.901 303.658 168.076 303.658 168.29V170.83C303.658 171.024 303.59 171.2 303.453 171.355C303.317 171.491 303.142 171.56 302.928 171.56H294.258V175.617H303.804C304.018 175.617 304.193 175.685 304.329 175.822C304.465 175.958 304.533 176.133 304.533 176.347V179.091C304.533 179.305 304.465 179.48 304.329 179.616C304.193 179.753 304.018 179.821 303.804 179.821H289.938Z" fill="white"/>
</g>
</g>
<defs>
<filter id="filter0_d_1775_338" x="0.867889" y="0" width="348.864" height="203.835" filterUnits="userSpaceOnUse" color-interpolation-filters="sRGB">
<feFlood flood-opacity="0" result="BackgroundImageFix"/>
<feColorMatrix in="SourceAlpha" type="matrix" values="0 0 0 0 0 0 0 0 0 0 0 0 0 0 0 0 0 0 127 0" result="hardAlpha"/>
<feOffset dy="6.5567"/>
<feGaussianBlur stdDeviation="1.63918"/>
<feComposite in2="hardAlpha" operator="out"/>
<feColorMatrix type="matrix" values="0 0 0 0 0 0 0 0 0 0 0 0 0 0 0 0 0 0 0.25 0"/>
<feBlend mode="normal" in2="BackgroundImageFix" result="effect1_dropShadow_1775_338"/>
<feBlend mode="normal" in="SourceGraphic" in2="effect1_dropShadow_1775_338" result="shape"/>
</filter>
<filter id="filter1_di_1775_338" x="36.6442" y="4.33773" width="275.434" height="61.3226" filterUnits="userSpaceOnUse" color-interpolation-filters="sRGB">
<feFlood flood-opacity="0" result="BackgroundImageFix"/>
<feColorMatrix in="SourceAlpha" type="matrix" values="0 0 0 0 0 0 0 0 0 0 0 0 0 0 0 0 0 0 127 0" result="hardAlpha"/>
<feMorphology radius="3.66038" operator="dilate" in="SourceAlpha" result="effect1_dropShadow_1775_338"/>
<feOffset/>
<feGaussianBlur stdDeviation="3"/>
<feComposite in2="hardAlpha" operator="out"/>
<feColorMatrix type="matrix" values="0 0 0 0 1 0 0 0 0 1 0 0 0 0 1 0 0 0 0.25 0"/>
<feBlend mode="normal" in2="BackgroundImageFix" result="effect1_dropShadow_1775_338"/>
<feBlend mode="normal" in="SourceGraphic" in2="effect1_dropShadow_1775_338" result="shape"/>
<feColorMatrix in="SourceAlpha" type="matrix" values="0 0 0 0 0 0 0 0 0 0 0 0 0 0 0 0 0 0 127 0" result="hardAlpha"/>
<feOffset dy="-4.57547"/>
<feGaussianBlur stdDeviation="0.457547"/>
<feComposite in2="hardAlpha" operator="arithmetic" k2="-1" k3="1"/>
<feColorMatrix type="matrix" values="0 0 0 0 0 0 0 0 0 0 0 0 0 0 0 0 0 0 1 0"/>
<feBlend mode="overlay" in2="shape" result="effect2_innerShadow_1775_338"/>
</filter>
<filter id="filter2_i_1775_338" x="4.14624" y="72.786" width="342.307" height="58.5151" filterUnits="userSpaceOnUse" color-interpolation-filters="sRGB">
<feFlood flood-opacity="0" result="BackgroundImageFix"/>
<feBlend mode="normal" in="SourceGraphic" in2="BackgroundImageFix" result="shape"/>
<feColorMatrix in="SourceAlpha" type="matrix" values="0 0 0 0 0 0 0 0 0 0 0 0 0 0 0 0 0 0 127 0" result="hardAlpha"/>
<feOffset dy="-5.49057"/>
<feGaussianBlur stdDeviation="0.457547"/>
<feComposite in2="hardAlpha" operator="arithmetic" k2="-1" k3="1"/>
<feColorMatrix type="matrix" values="0 0 0 0 0 0 0 0 0 0 0 0 0 0 0 0 0 0 1 0"/>
<feBlend mode="overlay" in2="shape" result="effect1_innerShadow_1775_338"/>
</filter>
<filter id="filter3_d_1775_338" x="26.5651" y="159.095" width="281.629" height="28.3386" filterUnits="userSpaceOnUse" color-interpolation-filters="sRGB">
<feFlood flood-opacity="0" result="BackgroundImageFix"/>
<feColorMatrix in="SourceAlpha" type="matrix" values="0 0 0 0 0 0 0 0 0 0 0 0 0 0 0 0 0 0 127 0" result="hardAlpha"/>
<feOffset dy="3.66038"/>
<feGaussianBlur stdDeviation="1.83019"/>
<feComposite in2="hardAlpha" operator="out"/>
<feColorMatrix type="matrix" values="0 0 0 0 0 0 0 0 0 0 0 0 0 0 0 0 0 0 0.25 0"/>
<feBlend mode="normal" in2="BackgroundImageFix" result="effect1_dropShadow_1775_338"/>
<feBlend mode="normal" in="SourceGraphic" in2="effect1_dropShadow_1775_338" result="shape"/>
</filter>
<linearGradient id="paint0_linear_1775_338" x1="173.821" y1="0" x2="173.821" y2="71" gradientUnits="userSpaceOnUse">
<stop offset="0.16" stop-color="white"/>
<stop offset="0.45" stop-color="#09EE2B"/>
<stop offset="0.73" stop-color="#13DA31"/>
</linearGradient>
<linearGradient id="paint1_linear_1775_338" x1="173.887" y1="51.5011" x2="173.887" y2="154.501" gradientUnits="userSpaceOnUse">
<stop offset="0.235" stop-color="#F5EFBB"/>
<stop offset="0.51" stop-color="#FFE728"/>
<stop offset="1" stop-color="#FFA800"/>
<stop offset="1" stop-color="#FFA800"/>
</linearGradient>
<linearGradient id="paint2_linear_1775_338" x1="173.429" y1="146.415" x2="173.429" y2="194" gradientUnits="userSpaceOnUse">
<stop stop-color="#13DA31"/>
<stop offset="1" stop-color="#759D7B"/>
</linearGradient>
</defs>
</svg>
