<svg width="37" height="37" viewBox="0 0 37 37" fill="none" xmlns="http://www.w3.org/2000/svg">
<path d="M11.7408 9.57143C11.7408 8.5958 12.476 7.77694 13.446 7.67216L30.2568 5.85618C31.3865 5.73415 32.3723 6.61921 32.3723 7.75545V28.6576H32.3551C32.1621 30.7401 30.3619 32.3721 28.1696 32.3721C25.8485 32.3721 23.9669 30.5428 23.9669 28.2862C23.9669 26.0295 25.8485 24.2002 28.1696 24.2002C28.8575 24.2002 29.5067 24.3609 30.0799 24.6457V16.175C30.0799 15.0388 29.0941 14.1537 27.9644 14.2758L15.7384 15.5964C14.7684 15.7012 14.0332 16.5201 14.0332 17.4957V25.686H14.016C13.8231 27.7685 12.0228 29.4005 9.83051 29.4005C7.5094 29.4005 5.62781 27.5712 5.62781 25.3146C5.62781 23.0579 7.5094 21.2286 9.83051 21.2286C10.5184 21.2286 11.1676 21.3893 11.7408 21.6741V9.57143Z" fill="white"/>
</svg>
