<svg width="42" height="42" viewBox="0 0 42 42" fill="none" xmlns="http://www.w3.org/2000/svg">
<path d="M27.5625 22.7499C27.5625 22.4018 27.4242 22.0679 27.1781 21.8218C26.9319 21.5757 26.5981 21.4374 26.25 21.4374H15.75C15.4019 21.4374 15.0681 21.5757 14.8219 21.8218C14.5758 22.0679 14.4375 22.4018 14.4375 22.7499C14.4375 23.098 14.5758 23.4318 14.8219 23.678C15.0681 23.9241 15.4019 24.0624 15.75 24.0624H26.25C26.5981 24.0624 26.9319 23.9241 27.1781 23.678C27.4242 23.4318 27.5625 23.098 27.5625 22.7499ZM27.5625 29.7499C27.5625 29.4018 27.4242 29.0679 27.1781 28.8218C26.9319 28.5757 26.5981 28.4374 26.25 28.4374H15.75C15.4019 28.4374 15.0681 28.5757 14.8219 28.8218C14.5758 29.0679 14.4375 29.4018 14.4375 29.7499C14.4375 30.098 14.5758 30.4318 14.8219 30.678C15.0681 30.9241 15.4019 31.0624 15.75 31.0624H26.25C26.5981 31.0624 26.9319 30.9241 27.1781 30.678C27.4242 30.4318 27.5625 30.098 27.5625 29.7499Z" fill="white"/>
<path fill-rule="evenodd" clip-rule="evenodd" d="M12.25 3.93738C10.9736 3.93738 9.74957 4.44441 8.84705 5.34693C7.94453 6.24945 7.4375 7.47352 7.4375 8.74988V33.2499C7.4375 34.5262 7.94453 35.7503 8.84705 36.6528C9.74957 37.5554 10.9736 38.0624 12.25 38.0624H29.75C31.0263 38.0624 32.2504 37.5554 33.1529 36.6528C34.0555 35.7503 34.5625 34.5262 34.5625 33.2499V13.9439C34.5625 13.2771 34.3455 12.6296 33.943 12.0976L28.6965 5.15363C28.411 4.77583 28.0418 4.46938 27.618 4.25834C27.1941 4.04731 26.727 3.93744 26.2535 3.93738H12.25ZM10.0625 8.74988C10.0625 7.54238 11.0425 6.56238 12.25 6.56238H24.9375V14.2571C24.9375 14.9816 25.5255 15.5696 26.25 15.5696H31.9375V33.2499C31.9375 34.4574 30.9575 35.4374 29.75 35.4374H12.25C11.0425 35.4374 10.0625 34.4574 10.0625 33.2499V8.74988Z" fill="white"/>
</svg>
