<svg width="30" height="30" viewBox="0 0 30 30" fill="none" xmlns="http://www.w3.org/2000/svg">
<g clip-path="url(#clip0_1764_730)">
<path d="M29.6861 18.5282L26.4718 15.3139C26.2709 15.1131 25.9984 15.0002 25.7143 15.0002C25.4302 15.0002 25.1577 15.1131 24.9568 15.3139L15 25.2707V30H19.7293L29.6861 20.0432C29.887 19.8423 29.9998 19.5698 29.9998 19.2857C29.9998 19.0016 29.887 18.7291 29.6861 18.5282ZM18.8421 27.8572H17.1428V26.1579L22.5 20.8007L24.1993 22.5L18.8421 27.8572ZM25.7143 20.985L24.015 19.2857L25.7143 17.5864L27.4136 19.2857L25.7143 20.985ZM6.42847 15H17.1428V17.1429H6.42847V15ZM6.42847 8.57144H19.2857V10.7143H6.42847V8.57144Z" fill="white"/>
<path d="M25.7145 2.14286C25.7139 1.57471 25.488 1.03 25.0862 0.628255C24.6845 0.226514 24.1398 0.000567297 23.5716 0H2.14288C1.57473 0.000567297 1.03001 0.226514 0.628267 0.628255C0.226523 1.03 0.000574648 1.57471 7.34771e-06 2.14286V16.0714C-0.00238037 18.2082 0.577211 20.3053 1.67657 22.1377C2.77592 23.97 4.35353 25.4683 6.24005 26.4718L11.7858 29.4289V27L7.24935 24.5807C5.70578 23.7597 4.41492 22.5338 3.51529 21.0347C2.61566 19.5356 2.14122 17.8198 2.14288 16.0714V2.14286H23.5716V11.7857H25.7145V2.14286Z" fill="white"/>
</g>
<defs>
<clipPath id="clip0_1764_730">
<rect width="30" height="30" fill="white"/>
</clipPath>
</defs>
</svg>
