<svg width="37" height="36" viewBox="0 0 37 36" fill="none" xmlns="http://www.w3.org/2000/svg">
<path d="M11.9324 10.2443L21.2425 3.64345C22.5456 2.7196 24.3483 3.65132 24.3483 5.24863V31.0851C24.3483 32.6824 22.5456 33.6141 21.2425 32.6903L11.9324 26.0894H5.03166C3.94493 26.0894 3.06396 25.2085 3.06396 24.1217V12.212C3.06396 11.1253 3.94493 10.2443 5.03166 10.2443H11.9324Z" fill="white"/>
<path d="M30.3405 10.8648C29.7062 10.4969 28.8915 10.7091 28.5208 11.3387C28.1502 11.9683 28.3639 12.777 28.9983 13.1449C30.7236 14.1456 31.8865 16.0177 31.8865 18.1669C31.8865 20.316 30.7236 22.1881 28.9983 23.1888C28.3639 23.5567 28.1502 24.3654 28.5208 24.995C28.8915 25.6247 29.7062 25.8368 30.3405 25.4689C32.8565 24.0096 34.5471 21.2838 34.5471 18.1669C34.5471 15.0499 32.8565 12.3241 30.3405 10.8648Z" fill="white"/>
</svg>
