<svg width="35" height="35" viewBox="0 0 35 35" fill="none" xmlns="http://www.w3.org/2000/svg">
<path d="M2.55208 4.20001H32.4479C33.8567 4.20001 35 5.32897 35 6.72001V26.88C35 27.5484 34.7311 28.1893 34.2525 28.6619C33.7739 29.1345 33.1248 29.4 32.4479 29.4H2.55208C1.87523 29.4 1.2261 29.1345 0.747488 28.6619C0.268879 28.1893 0 27.5484 0 26.88L0 6.72001C0 5.32897 1.14333 4.20001 2.55208 4.20001ZM2.1875 10.5533V26.88C2.1875 27.0787 2.35083 27.24 2.55208 27.24H32.4479C32.5446 27.24 32.6373 27.2021 32.7057 27.1346C32.7741 27.0671 32.8125 26.9755 32.8125 26.88V10.5533L18.9292 19.8168C18.0658 20.3928 16.9342 20.3928 16.0708 19.8168L2.1875 10.5533ZM2.1875 6.72001V7.94689L17.2958 18.0269C17.3561 18.0671 17.4272 18.0886 17.5 18.0886C17.5728 18.0886 17.6439 18.0671 17.7042 18.0269L32.8125 7.94689V6.72001C32.8125 6.62453 32.7741 6.53297 32.7057 6.46545C32.6373 6.39794 32.5446 6.36001 32.4479 6.36001H2.55208C2.45539 6.36001 2.36266 6.39794 2.29428 6.46545C2.22591 6.53297 2.1875 6.62453 2.1875 6.72001Z" fill="white"/>
</svg>
