<svg width="35" height="35" viewBox="0 0 35 35" fill="none" xmlns="http://www.w3.org/2000/svg">
<g clip-path="url(#clip0_1764_682)">
<path d="M4.73954 32.0833C4.4785 32.0833 4.21746 31.9915 4.00746 31.8033L0.361627 28.5221C0.13996 28.3208 0.00870997 28.0379 -4.00336e-05 27.7375C-0.0073317 27.4371 0.107877 27.1483 0.320793 26.9354L3.19371 24.0625L0.320793 21.1896C-0.106498 20.7623 -0.106498 20.0696 0.320793 19.6423L3.19371 16.7694L0.320793 13.8979C-0.106498 13.4706 -0.106498 12.7779 0.320793 12.3506L3.19371 9.47772L0.320793 6.60626C0.107877 6.3948 -0.0073317 6.10459 -4.00336e-05 5.80418C0.00870997 5.50376 0.13996 5.22084 0.361627 5.01959L4.00746 1.73834C4.45663 1.33293 5.14642 1.36939 5.55329 1.82001C5.95725 2.26918 5.92079 2.96043 5.47163 3.36584L2.68183 5.87564L5.51246 8.70626C5.93975 9.13355 5.93975 9.82626 5.51246 10.2536L2.641 13.125L5.51392 15.9979C5.94121 16.4252 5.94121 17.1179 5.51392 17.5452L2.641 20.4167L5.51392 23.2896C5.94121 23.7169 5.94121 24.4096 5.51392 24.8369L2.68329 27.6675L5.47308 30.1773C5.92225 30.5813 5.95871 31.2725 5.55475 31.7231C5.336 31.9623 5.0385 32.0833 4.73954 32.0833Z" fill="white"/>
<path d="M30.2604 32.0833C29.9614 32.0833 29.6639 31.9623 29.4466 31.7217C29.0427 31.2725 29.0791 30.5813 29.5283 30.1758L32.3181 27.6661L29.4875 24.8354C29.0602 24.4081 29.0602 23.7154 29.4875 23.2881L32.3604 20.4152L29.4875 17.5423C29.0602 17.115 29.0602 16.4223 29.4875 15.995L32.3589 13.125L29.486 10.2521C29.0587 9.8248 29.0587 9.1321 29.486 8.7048L32.3166 5.87418L29.5268 3.36439C29.0777 2.96043 29.0412 2.26918 29.4452 1.81855C29.8506 1.36939 30.5418 1.33439 30.991 1.73689L34.6368 5.01814C34.86 5.22085 34.9912 5.50376 35 5.80418C35.0073 6.1046 34.892 6.39335 34.6791 6.60626L31.8062 9.47918L34.6791 12.3521C35.1064 12.7794 35.1064 13.4721 34.6791 13.8994L31.8062 16.7723L34.6791 19.6452C35.1064 20.0725 35.1064 20.7652 34.6791 21.1925L31.8062 24.0654L34.6791 26.9383C34.892 27.1513 35.0073 27.44 35 27.7404C34.9912 28.0408 34.86 28.3238 34.6383 28.525L30.9925 31.8063C30.7825 31.9915 30.5214 32.0833 30.2604 32.0833Z" fill="white"/>
<path d="M22.2395 29.1667H12.7604C10.952 29.1667 9.47913 27.6952 9.47913 25.8854V6.19791C9.47913 4.38811 10.952 2.91666 12.7604 2.91666H22.2395C24.0479 2.91666 25.5208 4.38811 25.5208 6.19791V25.8854C25.5208 27.6952 24.0479 29.1667 22.2395 29.1667ZM12.7604 5.10416C12.1581 5.10416 11.6666 5.59416 11.6666 6.19791V25.8854C11.6666 26.4892 12.1581 26.9792 12.7604 26.9792H22.2395C22.8418 26.9792 23.3333 26.4892 23.3333 25.8854V6.19791C23.3333 5.59416 22.8418 5.10416 22.2395 5.10416H12.7604Z" fill="white"/>
<path d="M24.427 24.7917H10.5729C9.96913 24.7917 9.47913 24.3017 9.47913 23.6979C9.47913 23.0942 9.96913 22.6042 10.5729 22.6042H24.427C25.0308 22.6042 25.5208 23.0942 25.5208 23.6979C25.5208 24.3017 25.0308 24.7917 24.427 24.7917Z" fill="white"/>
</g>
<defs>
<clipPath id="clip0_1764_682">
<rect width="35" height="35" fill="white"/>
</clipPath>
</defs>
</svg>
